<?xml version="1.0" encoding="utf-8"?>
<!-- Generator: Adobe Illustrator 26.0.3, SVG Export Plug-In . SVG Version: 6.00 Build 0)  -->
<svg version="1.1" id="Livello_1" xmlns="http://www.w3.org/2000/svg" xmlns:xlink="http://www.w3.org/1999/xlink" x="0px" y="0px"
	 viewBox="0 0 4000 4000" style="enable-background:new 0 0 4000 4000;" xml:space="preserve">
<style type="text/css">
	.st0{fill:none;stroke:#7645D9;stroke-width:500;stroke-miterlimit:10;}
	.st1{fill:#7645D9;}
</style>
<path class="st0" d="M3351.39,2468.18c-235.36,606.54-871.68,984.77-1538.08,871.54C1051.69,3210.31,539.2,2488,668.6,1726.39
	c76.31-449.13,358.81-811.63,733.97-1006.94"/>
<g>
	<path class="st1" d="M3333.83,2794.74c-319.86,160.94-708.8,262.55-1067.34,206.49c-890.59-143.89-1497.32-994.97-1343.34-1883.64
		c18.31-99.18,67.58-190.05,108.1-280.38c9.56-21.63,16.73-38.83,22.67-59.02c0,0,0.57-2.18,0.57-2.18c0.92-3.2,1.62-6.9,2.11-9.8
		c0.34-2.31,0.48-4.37,0.44-6.13c0,0,464.35,185.41,464.35,185.41c-11.95,23.25-24.76,45.43-38.34,67.24
		c-25.84,41.5-50.68,77.86-74.43,117.74c-13.27,22.8-26.43,45.95-34.3,68.75c-0.64,1.86-0.84,2.77-1.35,4.26
		c0-0.06-0.02,0.03-0.07,0.35c-0.39,2.14-1.27,7.63-1.69,9.94c-68.39,388.12,77.1,799.98,371.51,1061.56
		c170.58,153.87,387.33,255.22,614.92,286.45c241.15,28.76,506.03-45.82,722.24-151.29c14.34-7.09,28.51-14.4,42.5-21.88
		C3122.39,2388.59,3333.83,2794.74,3333.83,2794.74L3333.83,2794.74z"/>
</g>
</svg>
