<?xml version="1.0" encoding="utf-8"?>
<!-- Generator: Adobe Illustrator 26.0.3, SVG Export Plug-In . SVG Version: 6.00 Build 0)  -->
<svg version="1.1" id="Livello_1" xmlns="http://www.w3.org/2000/svg" xmlns:xlink="http://www.w3.org/1999/xlink" x="0px" y="0px"
	 viewBox="0 0 4000 4000" width="30" height="30" style="enable-background:new 0 0 4000 4000;" xml:space="preserve">
<style type="text/css">
	.st0{fill:none;stroke:#FFFFFF;stroke-width:200;stroke-miterlimit:10;}
	.st1{fill:#FFFFFF;}
</style>
<path class="st0" d="M3351.39,2468.18c-235.36,606.54-871.68,984.77-1538.08,871.54C1051.69,3210.31,539.2,2488,668.6,1726.39
	c76.31-449.13,358.81-811.63,733.97-1006.94"/>
<g>
	<path class="st1" d="M3369.98,2622.87c-266.59,135.59-595.74,220.94-895.57,204.64c-45.14-2.61-91.22-7.84-135.72-16.03
		c-487.72-86.45-900.92-410.57-1103.81-862.04c-118.68-262.96-158.67-558.75-113.69-843.75c3.74-25.88,9.23-52.94,15.83-77.98
		c5.4-21.5,12.16-44.34,18.64-65.53c15-48.19,31.89-97.09,48.44-143.97c10.1-28.06,27.4-77.59,36.89-106.02
		c0,0,202.82,80.98,202.82,80.98c-11.99,25.42-23.24,50.22-34.44,75.63c-25.11,57.38-48.54,114.8-67.64,173.86
		c-3.71,11.31-7.63,24.59-10.74,36.05c-3.09,10.93-6.06,23.36-8.14,34.04c0,0-1.08,5.35-1.08,5.35c-0.33,1.39-0.84,4.45-1.05,5.89
		c-93.72,548.65,174.17,1095.05,663.18,1359.76c90.86,48.8,188.15,87.29,288.06,113c49.54,12.77,100.03,23.35,150.87,29.59
		c15.94,1.99,34,3.78,50.17,4.8c0,0,12.65,0.8,12.65,0.8s6.33,0.41,6.33,0.41s6.36,0.24,6.36,0.24
		c94.48,4.14,190.15-4.28,283.4-20.3c103.59-18.06,205.69-45.97,304.44-82.3c65.49-24.14,129.9-52.13,191.46-84.51
		C3277.62,2445.47,3369.98,2622.87,3369.98,2622.87L3369.98,2622.87z"/>
</g>
</svg>
