<svg version="1.1" xmlns="http://www.w3.org/2000/svg" width="32" height="32" viewBox="0 0 32 32">
<title>bunny</title>
<path d="M9.935 0c-2.672 0-4.687 2.402-4.197 5.002l1.161 6.152c-3.932 1.717-6.899 4.682-6.899 8.402v2.263c0 3.075 2.055 5.65 4.929 7.389 2.896 1.752 6.813 2.793 11.071 2.793s8.175-1.041 11.071-2.793c2.873-1.738 4.929-4.313 4.929-7.389v-2.263c0-3.74-2.998-6.716-6.963-8.43l1.155-6.124c0.49-2.6-1.525-5.002-4.197-5.002-2.358 0-4.269 1.892-4.269 4.226v5.205c-0.567-0.038-1.143-0.058-1.726-0.058-0.607 0-1.206 0.021-1.796 0.062v-5.21c0-2.334-1.911-4.226-4.269-4.226zM11.918 18.909c0 1.339-0.731 2.424-1.633 2.424s-1.633-1.085-1.633-2.424c0-1.339 0.731-2.424 1.633-2.424s1.633 1.085 1.633 2.424zM23.184 18.909c0 1.339-0.731 2.424-1.633 2.424s-1.633-1.085-1.633-2.424c0-1.339 0.731-2.424 1.633-2.424s1.633 1.085 1.633 2.424z"></path>
</svg>